<?xml version="1.0" encoding="UTF-8" standalone="no"?>
<!DOCTYPE svg PUBLIC "-//W3C//DTD SVG 20010904//EN"
              "http://www.w3.org/TR/2001/REC-SVG-20010904/DTD/svg10.dtd">

<svg xmlns="http://www.w3.org/2000/svg"
     width="100%" height="100%"
     viewBox="0 0 100 100">
  <path id="body"
        fill="none" stroke="black" stroke-width="1"
        d="M 58.00,93.11
           C 27.86,99.26 23.47,132.67 41.04,148.82
             48.14,155.34 56.69,156.99 66.00,157.00
             66.00,157.00 434.00,157.00 434.00,157.00
             443.83,156.98 452.68,155.13 459.91,147.91
             474.12,133.70 471.77,107.81 454.00,97.53
             447.58,93.81 441.24,93.01 434.00,93.11
             434.00,93.11 184.00,93.11 184.00,93.11
             184.00,93.11 102.00,93.11 102.00,93.11
             102.00,93.11 58.00,93.11 58.00,93.11 Z
           M 58.00,218.11
           C 27.86,224.26 23.47,257.67 41.04,273.82
             48.14,280.34 56.69,281.99 66.00,282.00
             66.00,282.00 434.00,282.00 434.00,282.00
             441.24,281.99 447.58,281.19 454.00,277.47
             471.77,267.19 474.12,241.30 459.91,227.09
             452.68,219.87 443.83,218.02 434.00,218.11
             434.00,218.11 184.00,218.11 184.00,218.11
             184.00,218.11 102.00,218.11 102.00,218.11
             102.00,218.11 58.00,218.11 58.00,218.11 Z
           M 58.00,343.11
           C 27.86,349.26 23.47,382.67 41.04,398.82
             48.14,405.34 56.69,406.99 66.00,407.00
             66.00,407.00 434.00,407.00 434.00,407.00
             441.24,406.99 447.58,406.19 454.00,402.47
             471.77,392.19 474.12,366.30 459.91,352.09
             452.68,344.87 443.83,343.02 434.00,343.11
             434.00,343.11 184.00,343.11 184.00,343.11
             184.00,343.11 102.00,343.11 102.00,343.11
             102.00,343.11 58.00,343.11 58.00,343.11 Z" />
</svg>
