<svg xmlns="http://www.w3.org/2000/svg" viewBox="0 0 10667 2528">
  <path id="upperside" fill="none" stroke="black" stroke-width="1" d="M 0.00,0.00 C 0.00,0.00 0.00,172.00 0.00,172.00 0.00,172.00 6058.00,172.00 6058.00,172.00 6058.00,172.00 8077.00,172.00 8077.00,172.00 8077.00,172.00 9087.00,172.00 9087.00,172.00 9087.00,172.00 9094.00,172.60 9094.00,172.60 9094.00,172.60 9103.00,180.00 9103.00,180.00 9103.00,180.00 9117.00,194.00 9117.00,194.00 9117.00,194.00 9185.00,262.00 9185.00,262.00 9185.00,262.00 9205.00,282.00 9205.00,282.00 9205.00,282.00 9214.00,288.80 9214.00,288.80 9214.00,288.80 9223.00,282.00 9223.00,282.00 9223.00,282.00 9243.00,262.00 9243.00,262.00 9243.00,262.00 9311.00,194.00 9311.00,194.00 9311.00,194.00 9325.00,180.00 9325.00,180.00 9325.00,180.00 9334.00,172.60 9334.00,172.60 9334.00,172.60 9341.00,172.00 9341.00,172.00 9341.00,172.00 10667.00,172.00 10667.00,172.00 10667.00,172.00 10667.00,0.00 10667.00,0.00 10667.00,0.00 0.00,0.00 0.00,0.00 Z" />
  <path id="lowerside" fill="none" stroke="black" stroke-width="1" d="M 0.00,172.00 C 0.00,172.00 0.00,2528.00 0.00,2528.00 0.00,2528.00 10667.00,2528.00 10667.00,2528.00 10667.00,2528.00 10667.00,172.00 10667.00,172.00 10667.00,172.00 9340.00,172.00 9340.00,172.00 9340.00,172.00 9333.00,172.60 9333.00,172.60 9333.00,172.60 9324.00,180.00 9324.00,180.00 9324.00,180.00 9310.00,194.00 9310.00,194.00 9310.00,194.00 9243.00,261.00 9243.00,261.00 9243.00,261.00 9223.00,281.00 9223.00,281.00 9223.00,281.00 9214.00,287.96 9214.00,287.96 9214.00,287.96 9205.00,281.00 9205.00,281.00 9205.00,281.00 9185.00,261.00 9185.00,261.00 9185.00,261.00 9118.00,194.00 9118.00,194.00 9118.00,194.00 9104.00,180.00 9104.00,180.00 9104.00,180.00 9095.00,172.60 9095.00,172.60 9095.00,172.60 9088.00,172.00 9088.00,172.00 9088.00,172.00 8078.00,172.00 8078.00,172.00 8078.00,172.00 6059.00,172.00 6059.00,172.00 6059.00,172.00 0.00,172.00 0.00,172.00 Z" />
</svg>
