<?xml version="1.0" encoding="UTF-8" standalone="no"?>
<!DOCTYPE svg PUBLIC "-//W3C//DTD SVG 20010904//EN"
              "http://www.w3.org/TR/2001/REC-SVG-20010904/DTD/svg10.dtd">

<svg xmlns="http://www.w3.org/2000/svg"
     width="5.05333in" height="2.3in"
     viewBox="0 0 1516 690">
  <path id="line"
        fill="none" stroke="black" stroke-width="1"
        d="M 372.00,83.74
           C 364.67,87.56 356.54,98.55 350.85,105.00
             350.85,105.00 312.92,148.00 312.92,148.00
             312.92,148.00 271.04,195.49 271.04,195.49
             271.04,195.49 167.25,312.91 167.25,312.91
             167.25,312.91 146.51,335.83 146.51,335.83
             146.51,335.83 121.92,364.00 121.92,364.00
             117.10,369.23 104.74,381.20 104.11,388.00
             102.96,400.38 115.02,405.01 122.91,399.85
             126.46,397.53 132.91,389.51 136.05,386.00
             136.05,386.00 163.41,355.00 163.41,355.00
             163.41,355.00 221.87,288.99 221.87,288.99
             221.87,288.99 334.69,161.09 334.69,161.09
             334.69,161.09 373.46,116.99 373.46,116.99
             377.43,112.26 382.40,108.20 385.74,103.00
             392.56,92.37 385.23,80.58 372.00,83.74 Z
           M 493.01,83.70
           C 486.61,86.66 482.19,93.00 477.54,98.17
             477.54,98.17 451.48,127.32 451.48,127.32
             451.48,127.32 406.35,177.87 406.35,177.87
             406.35,177.87 349.32,240.91 349.32,240.91
             349.32,240.91 334.34,258.26 334.34,258.26
             330.86,262.08 326.50,265.94 324.93,271.00
             322.52,278.77 329.19,287.86 340.00,285.66
             345.76,284.48 351.61,276.40 355.42,272.00
             355.42,272.00 384.08,240.00 384.08,240.00
             384.08,240.00 415.51,204.72 415.51,204.72
             415.51,204.72 445.72,171.48 445.72,171.48
             445.72,171.48 458.34,157.00 458.34,157.00
             458.34,157.00 493.28,118.00 493.28,118.00
             493.28,118.00 507.26,102.00 507.26,102.00
             511.71,94.76 508.39,80.26 493.01,83.70 Z
           M 614.00,83.65
           C 606.80,86.68 600.33,96.09 595.00,102.03
             595.00,102.03 556.93,145.00 556.93,145.00
             556.93,145.00 471.04,241.49 471.04,241.49
             471.04,241.49 412.74,306.72 412.74,306.72
             412.74,306.72 369.83,355.00 369.83,355.00
             364.84,360.55 354.75,369.52 354.11,377.00
             353.04,389.47 366.09,393.93 374.99,386.73
             374.99,386.73 393.00,366.42 393.00,366.42
             393.00,366.42 424.92,331.00 424.92,331.00
             424.92,331.00 459.74,291.58 459.74,291.58
             459.74,291.58 540.68,201.09 540.68,201.09
             540.68,201.09 589.61,145.83 589.61,145.83
             589.61,145.83 615.17,117.00 615.17,117.00
             618.47,113.33 626.65,105.04 628.69,101.00
             633.95,90.56 624.92,81.42 614.00,83.65 Z
           M 736.00,83.48
           C 728.42,85.68 723.72,93.29 718.72,99.00
             718.72,99.00 688.72,133.00 688.72,133.00
             688.72,133.00 607.02,225.49 607.02,225.49
             607.02,225.49 576.50,259.83 576.50,259.83
             576.50,259.83 556.72,282.16 556.72,282.16
             553.68,285.59 548.31,291.06 546.44,295.00
             542.59,303.08 547.84,313.04 559.00,311.89
             566.32,311.14 571.64,303.18 576.13,298.00
             576.13,298.00 608.08,262.00 608.08,262.00
             608.08,262.00 629.16,238.00 629.16,238.00
             629.16,238.00 698.16,160.00 698.16,160.00
             698.16,160.00 727.51,126.72 727.51,126.72
             727.51,126.72 748.28,103.00 748.28,103.00
             754.59,94.14 749.33,81.66 736.00,83.48 Z
           M 856.00,83.57
           C 849.78,86.01 847.66,90.01 843.45,94.91
             843.45,94.91 826.92,114.00 826.92,114.00
             826.92,114.00 782.85,165.00 782.85,165.00
             782.85,165.00 760.76,191.00 760.76,191.00
             753.53,202.24 761.79,213.12 773.00,210.61
             778.20,209.44 780.83,205.79 784.13,202.00
             784.13,202.00 800.25,183.28 800.25,183.28
             800.25,183.28 848.29,127.27 848.29,127.27
             848.29,127.27 870.33,100.91 870.33,100.91
             874.74,92.26 869.30,81.20 856.00,83.57 Z
           M 857.00,217.00
           C 857.00,217.00 882.00,217.00 882.00,217.00
             884.25,217.00 887.48,217.19 889.49,216.18
             892.83,214.48 904.87,199.78 908.13,196.00
             908.13,196.00 964.84,132.00 964.84,132.00
             964.84,132.00 989.06,104.00 989.06,104.00
             992.58,99.06 994.52,93.39 990.49,88.05
             986.77,83.13 979.33,81.42 974.00,84.74
             970.41,86.98 956.13,103.67 952.51,107.83
             952.51,107.83 889.83,179.00 889.83,179.00
             889.83,179.00 857.00,217.00 857.00,217.00 Z
           M 944.00,248.00
           C 943.03,251.69 940.23,253.88 937.74,256.72
             932.84,262.30 918.00,276.71 916.43,283.00
             913.83,293.43 924.72,300.92 933.96,296.43
             938.38,294.29 946.46,284.45 950.00,280.42
             950.00,280.42 977.83,250.00 977.83,250.00
             980.38,247.17 990.48,236.75 990.92,233.83
             991.33,231.16 986.27,219.20 985.00,216.00
             992.41,216.43 997.77,211.78 1011.00,215.00
             1012.03,211.02 1015.58,207.99 1018.34,205.00
             1018.34,205.00 1033.98,188.00 1033.98,188.00
             1033.98,188.00 1089.66,126.72 1089.66,126.72
             1093.96,121.95 1110.04,104.99 1111.86,101.00
             1113.00,98.50 1113.26,94.69 1112.77,92.00
             1111.34,84.04 1101.78,80.81 1095.09,84.57
             1091.77,86.43 1085.25,93.91 1082.58,97.00
             1082.58,97.00 1068.05,113.01 1068.05,113.01
             1068.05,113.01 978.18,211.96 978.18,211.96
             978.18,211.96 958.22,234.42 958.22,234.42
             952.85,241.16 953.49,245.20 944.00,248.00 Z
           M 1218.00,83.74
           C 1211.37,87.19 1206.75,93.53 1201.83,99.00
             1201.83,99.00 1173.58,130.72 1173.58,130.72
             1173.58,130.72 1103.04,209.49 1103.04,209.49
             1103.04,209.49 1077.08,238.04 1077.08,238.04
             1077.08,238.04 1058.58,259.00 1058.58,259.00
             1055.79,262.22 1051.82,266.09 1050.23,270.00
             1047.11,277.67 1052.87,288.39 1065.00,285.61
             1070.71,284.30 1074.79,278.37 1078.55,274.16
             1078.55,274.16 1103.50,246.18 1103.50,246.18
             1103.50,246.18 1198.73,140.00 1198.73,140.00
             1198.73,140.00 1224.96,110.51 1224.96,110.51
             1229.77,105.16 1234.57,101.89 1233.89,94.00
             1233.13,85.11 1226.01,81.83 1218.00,83.74 Z
           M 1338.00,217.00
           C 1338.00,217.00 1364.00,217.00 1364.00,217.00
             1366.25,217.00 1369.48,217.19 1371.49,216.18
             1373.83,214.99 1387.60,199.07 1390.28,196.00
             1390.28,196.00 1448.26,131.28 1448.26,131.28
             1448.26,131.28 1473.24,102.99 1473.24,102.99
             1476.60,97.85 1477.27,91.05 1472.61,86.39
             1468.56,82.34 1461.76,82.14 1457.00,85.01
             1453.12,87.34 1438.49,104.36 1434.59,109.00
             1434.59,109.00 1410.17,136.00 1410.17,136.00
             1410.17,136.00 1363.95,188.00 1363.95,188.00
             1363.95,188.00 1338.00,217.00 1338.00,217.00 Z
           M 1343.00,86.80
           C 1335.76,87.95 1333.00,93.29 1328.34,98.42
             1328.34,98.42 1297.65,134.00 1297.65,134.00
             1293.46,140.14 1294.51,150.52 1304.00,149.74
             1309.98,149.24 1314.57,142.16 1318.14,137.87
             1318.14,137.87 1336.07,117.00 1336.07,117.00
             1339.25,113.50 1348.21,103.61 1350.18,100.00
             1353.82,93.35 1350.28,87.57 1343.00,86.80 Z
           M 1166.00,314.00
           C 1171.90,309.63 1186.70,291.75 1192.26,285.32
             1192.26,285.32 1228.99,244.42 1228.99,244.42
             1228.99,244.42 1238.51,233.00 1238.51,233.00
             1243.38,226.23 1244.17,220.09 1254.00,218.00
             1256.41,208.44 1273.50,201.52 1270.72,188.00
             1269.19,180.53 1260.64,177.09 1254.00,180.31
             1248.86,182.81 1234.71,199.75 1230.05,205.00
             1230.05,205.00 1203.00,235.58 1203.00,235.58
             1203.00,235.58 1190.25,250.29 1190.25,250.29
             1190.25,250.29 1182.19,271.00 1182.19,271.00
             1182.19,271.00 1166.00,314.00 1166.00,314.00 Z
           M 1193.00,214.00
           C 1193.00,214.00 1193.00,215.00 1193.00,215.00
             1193.00,215.00 1194.00,214.00 1194.00,214.00
             1194.00,214.00 1193.00,214.00 1193.00,214.00 Z
           M 1197.00,215.00
           C 1197.00,215.00 1197.00,216.00 1197.00,216.00
             1197.00,216.00 1198.00,215.00 1198.00,215.00
             1198.00,215.00 1197.00,215.00 1197.00,215.00 Z
           M 1016.00,216.00
           C 1016.00,216.00 1016.00,217.00 1016.00,217.00
             1016.00,217.00 1017.00,216.00 1017.00,216.00
             1017.00,216.00 1016.00,216.00 1016.00,216.00 Z
           M 1200.00,216.00
           C 1200.00,216.00 1202.00,219.00 1202.00,219.00
             1202.00,219.00 1200.00,216.00 1200.00,216.00 Z
           M 1193.00,217.00
           C 1193.00,217.00 1193.00,227.00 1193.00,227.00
             1194.35,223.59 1194.35,220.41 1193.00,217.00 Z
           M 1380.00,217.00
           C 1380.00,217.00 1380.00,218.00 1380.00,218.00
             1380.00,218.00 1381.00,217.00 1381.00,217.00
             1381.00,217.00 1380.00,217.00 1380.00,217.00 Z
           M 895.00,218.00
           C 895.00,218.00 895.00,219.00 895.00,219.00
             895.00,219.00 896.00,218.00 896.00,218.00
             896.00,218.00 895.00,218.00 895.00,218.00 Z
           M 1016.00,218.00
           C 1016.00,218.00 1014.00,220.00 1014.00,220.00
             1014.00,220.00 1014.00,221.00 1014.00,221.00
             1014.00,221.00 1016.00,218.00 1016.00,218.00 Z
           M 1379.00,219.00
           C 1366.65,231.08 1362.32,233.10 1355.00,250.00
             1355.00,250.00 1369.29,230.17 1369.29,230.17
             1372.61,226.71 1377.74,223.79 1379.00,219.00 Z
           M 894.00,220.00
           C 894.00,220.00 894.00,221.00 894.00,221.00
             894.00,221.00 895.00,220.00 895.00,220.00
             895.00,220.00 894.00,220.00 894.00,220.00 Z
           M 1201.00,220.00
           C 1201.00,220.00 1201.00,221.00 1201.00,221.00
             1201.00,221.00 1202.00,220.00 1202.00,220.00
             1202.00,220.00 1201.00,220.00 1201.00,220.00 Z
           M 844.00,221.00
           C 844.00,221.00 844.00,222.00 844.00,222.00
             844.00,222.00 845.00,221.00 845.00,221.00
             845.00,221.00 844.00,221.00 844.00,221.00 Z
           M 893.00,222.00
           C 893.00,222.00 893.00,223.00 893.00,223.00
             893.00,223.00 894.00,222.00 894.00,222.00
             894.00,222.00 893.00,222.00 893.00,222.00 Z
           M 1200.00,223.00
           C 1200.00,223.00 1200.00,224.00 1200.00,224.00
             1200.00,224.00 1201.00,223.00 1201.00,223.00
             1201.00,223.00 1200.00,223.00 1200.00,223.00 Z
           M 843.00,224.00
           C 843.00,224.00 843.00,225.00 843.00,225.00
             843.00,225.00 844.00,224.00 844.00,224.00
             844.00,224.00 843.00,224.00 843.00,224.00 Z
           M 892.00,224.00
           C 892.00,224.00 892.00,225.00 892.00,225.00
             892.00,225.00 893.00,224.00 893.00,224.00
             893.00,224.00 892.00,224.00 892.00,224.00 Z
           M 1009.00,224.00
           C 1009.00,224.00 1005.00,229.00 1005.00,229.00
             1005.00,229.00 1009.00,224.00 1009.00,224.00 Z
           M 952.00,225.00
           C 952.00,225.00 952.00,226.00 952.00,226.00
             952.00,226.00 953.00,225.00 953.00,225.00
             953.00,225.00 952.00,225.00 952.00,225.00 Z
           M 842.00,226.00
           C 842.00,226.00 842.00,227.00 842.00,227.00
             842.00,227.00 843.00,226.00 843.00,226.00
             843.00,226.00 842.00,226.00 842.00,226.00 Z
           M 959.00,226.00
           C 959.00,226.00 959.00,227.00 959.00,227.00
             959.00,227.00 960.00,226.00 960.00,226.00
             960.00,226.00 959.00,226.00 959.00,226.00 Z
           M 891.00,227.00
           C 891.00,227.00 891.00,228.00 891.00,228.00
             891.00,228.00 892.00,227.00 892.00,227.00
             892.00,227.00 891.00,227.00 891.00,227.00 Z
           M 951.00,228.00
           C 951.00,228.00 951.00,229.00 951.00,229.00
             951.00,229.00 952.00,228.00 952.00,228.00
             952.00,228.00 951.00,228.00 951.00,228.00 Z
           M 1198.00,228.00
           C 1198.00,228.00 1198.00,229.00 1198.00,229.00
             1198.00,229.00 1199.00,228.00 1199.00,228.00
             1199.00,228.00 1198.00,228.00 1198.00,228.00 Z
           M 1192.00,229.00
           C 1192.00,229.00 1192.00,230.00 1192.00,230.00
             1192.00,230.00 1193.00,229.00 1193.00,229.00
             1193.00,229.00 1192.00,229.00 1192.00,229.00 Z
           M 958.00,231.00
           C 958.00,231.00 958.00,232.00 958.00,232.00
             958.00,232.00 959.00,231.00 959.00,231.00
             959.00,231.00 958.00,231.00 958.00,231.00 Z
           M 1197.00,231.00
           C 1197.00,231.00 1197.00,232.00 1197.00,232.00
             1197.00,232.00 1198.00,231.00 1198.00,231.00
             1198.00,231.00 1197.00,231.00 1197.00,231.00 Z
           M 1191.00,232.00
           C 1191.00,232.00 1191.00,233.00 1191.00,233.00
             1191.00,233.00 1192.00,232.00 1192.00,232.00
             1192.00,232.00 1191.00,232.00 1191.00,232.00 Z
           M 837.00,233.00
           C 837.00,233.00 834.00,237.00 834.00,237.00
             834.00,237.00 837.00,233.00 837.00,233.00 Z
           M 948.00,234.00
           C 948.00,234.00 943.00,240.00 943.00,240.00
             943.00,240.00 948.00,234.00 948.00,234.00 Z
           M 1190.00,234.00
           C 1190.00,234.00 1190.00,235.00 1190.00,235.00
             1190.00,235.00 1191.00,234.00 1191.00,234.00
             1191.00,234.00 1190.00,234.00 1190.00,234.00 Z
           M 1000.00,235.00
           C 1000.00,235.00 996.00,240.00 996.00,240.00
             996.00,240.00 1000.00,235.00 1000.00,235.00 Z
           M 1195.00,236.00
           C 1195.00,236.00 1195.00,237.00 1195.00,237.00
             1195.00,237.00 1196.00,236.00 1196.00,236.00
             1196.00,236.00 1195.00,236.00 1195.00,236.00 Z
           M 722.00,237.57
           C 714.82,240.39 702.92,255.62 697.42,262.00
             697.42,262.00 649.99,315.58 649.99,315.58
             649.99,315.58 618.13,351.01 618.13,351.01
             618.13,351.01 486.29,499.00 486.29,499.00
             486.29,499.00 428.27,564.42 428.27,564.42
             426.52,566.50 424.84,568.39 423.89,571.00
             421.18,578.38 426.15,586.16 434.00,586.89
             444.16,587.83 451.77,575.84 457.72,569.00
             457.72,569.00 510.28,510.00 510.28,510.00
             510.28,510.00 564.68,449.09 564.68,449.09
             564.68,449.09 639.51,364.72 639.51,364.72
             639.51,364.72 689.27,309.00 689.27,309.00
             689.27,309.00 719.51,274.72 719.51,274.72
             723.39,270.42 732.23,261.48 735.15,257.00
             742.11,246.34 735.72,235.13 722.00,237.57 Z
           M 993.00,238.00
           C 993.00,238.00 993.00,239.00 993.00,239.00
             993.00,239.00 994.00,238.00 994.00,238.00
             994.00,238.00 993.00,238.00 993.00,238.00 Z
           M 891.00,240.00
           C 891.00,240.00 891.00,241.00 891.00,241.00
             891.00,241.00 892.00,240.00 892.00,240.00
             892.00,240.00 891.00,240.00 891.00,240.00 Z
           M 958.00,242.00
           C 958.00,242.00 958.00,243.00 958.00,243.00
             958.00,243.00 957.00,242.00 957.00,242.00
             957.00,242.00 958.00,242.00 958.00,242.00 Z
           M 1193.00,241.00
           C 1193.00,241.00 1193.00,242.00 1193.00,242.00
             1193.00,242.00 1194.00,241.00 1194.00,241.00
             1194.00,241.00 1193.00,241.00 1193.00,241.00 Z
           M 826.00,243.00
           C 826.00,243.00 826.00,244.00 826.00,244.00
             826.00,244.00 827.00,243.00 827.00,243.00
             827.00,243.00 826.00,243.00 826.00,243.00 Z
           M 892.00,243.00
           C 892.00,243.00 892.00,244.00 892.00,244.00
             892.00,244.00 893.00,243.00 893.00,243.00
             893.00,243.00 892.00,243.00 892.00,243.00 Z
           M 1183.00,243.00
           C 1183.00,243.00 1181.00,245.00 1181.00,245.00
             1181.00,245.00 1181.00,246.00 1181.00,246.00
             1181.00,246.00 1183.00,243.00 1183.00,243.00 Z
           M 824.00,244.00
           C 824.00,244.00 824.00,245.00 824.00,245.00
             824.00,245.00 825.00,244.00 825.00,244.00
             825.00,244.00 824.00,244.00 824.00,244.00 Z
           M 822.00,245.00
           C 822.00,245.00 822.00,246.00 822.00,246.00
             822.00,246.00 823.00,245.00 823.00,245.00
             823.00,245.00 822.00,245.00 822.00,245.00 Z
           M 893.00,245.00
           C 893.00,245.00 893.00,246.00 893.00,246.00
             893.00,246.00 894.00,245.00 894.00,245.00
             894.00,245.00 893.00,245.00 893.00,245.00 Z
           M 936.00,245.00
           C 936.00,245.00 936.00,246.00 936.00,246.00
             936.00,246.00 937.00,245.00 937.00,245.00
             937.00,245.00 936.00,245.00 936.00,245.00 Z
           M 820.00,246.00
           C 820.00,246.00 820.00,247.00 820.00,247.00
             820.00,247.00 821.00,246.00 821.00,246.00
             821.00,246.00 820.00,246.00 820.00,246.00 Z
           M 1191.00,246.00
           C 1191.00,246.00 1191.00,247.00 1191.00,247.00
             1191.00,247.00 1192.00,246.00 1192.00,246.00
             1192.00,246.00 1191.00,246.00 1191.00,246.00 Z
           M 1179.00,247.00
           C 1179.00,247.00 1179.00,248.00 1179.00,248.00
             1179.00,248.00 1180.00,247.00 1180.00,247.00
             1180.00,247.00 1179.00,247.00 1179.00,247.00 Z
           M 823.00,250.00
           C 823.00,250.00 823.00,251.00 823.00,251.00
             823.00,251.00 824.00,250.00 824.00,250.00
             824.00,250.00 823.00,250.00 823.00,250.00 Z
           M 823.00,292.00
           C 823.00,292.00 860.00,250.00 860.00,250.00
             860.00,250.00 834.00,250.00 834.00,250.00
             831.31,250.02 828.49,249.85 826.23,251.60
             823.14,253.98 823.05,257.46 823.00,261.00
             823.00,261.00 823.00,292.00 823.00,292.00 Z
           M 1278.00,250.00
           C 1278.00,250.00 1278.00,251.00 1278.00,251.00
             1278.00,251.00 1279.00,250.00 1279.00,250.00
             1279.00,250.00 1278.00,250.00 1278.00,250.00 Z
           M 1340.00,250.00
           C 1340.00,250.00 1316.00,250.00 1316.00,250.00
             1305.13,250.02 1303.70,254.59 1296.75,262.72
             1294.37,265.50 1290.65,269.87 1291.41,273.86
             1291.96,276.79 1294.53,276.76 1296.36,278.58
             1298.51,280.73 1298.63,283.58 1300.56,284.98
             1305.32,288.42 1311.78,283.24 1314.91,279.98
             1314.91,279.98 1327.49,266.17 1327.49,266.17
             1331.74,261.36 1337.66,255.90 1340.00,250.00 Z
           M 1177.00,251.00
           C 1177.00,251.00 1177.00,252.00 1177.00,252.00
             1177.00,252.00 1178.00,251.00 1178.00,251.00
             1178.00,251.00 1177.00,251.00 1177.00,251.00 Z
           M 1176.00,253.00
           C 1176.00,253.00 1176.00,254.00 1176.00,254.00
             1176.00,254.00 1177.00,253.00 1177.00,253.00
             1177.00,253.00 1176.00,253.00 1176.00,253.00 Z
           M 813.00,254.00
           C 813.00,254.00 813.00,255.00 813.00,255.00
             813.00,255.00 814.00,254.00 814.00,254.00
             814.00,254.00 813.00,254.00 813.00,254.00 Z
           M 812.00,257.00
           C 812.00,257.00 812.00,258.00 812.00,258.00
             812.00,258.00 813.00,257.00 813.00,257.00
             813.00,257.00 812.00,257.00 812.00,257.00 Z
           M 1174.00,257.00
           C 1174.00,257.00 1174.00,258.00 1174.00,258.00
             1174.00,258.00 1175.00,257.00 1175.00,257.00
             1175.00,257.00 1174.00,257.00 1174.00,257.00 Z
           M 811.00,259.00
           C 811.00,259.00 811.00,260.00 811.00,260.00
             811.00,260.00 812.00,259.00 812.00,259.00
             812.00,259.00 811.00,259.00 811.00,259.00 Z
           M 1172.00,260.00
           C 1172.00,260.00 1172.00,261.00 1172.00,261.00
             1172.00,261.00 1173.00,260.00 1173.00,260.00
             1173.00,260.00 1172.00,260.00 1172.00,260.00 Z
           M 1169.00,264.00
           C 1169.00,264.00 1164.00,270.00 1164.00,270.00
             1164.00,270.00 1169.00,264.00 1169.00,264.00 Z
           M 804.00,267.00
           C 804.00,267.00 801.00,271.00 801.00,271.00
             801.00,271.00 804.00,267.00 804.00,267.00 Z
           M 1037.00,268.00
           C 1037.00,268.00 1034.00,272.00 1034.00,272.00
             1034.00,272.00 1037.00,268.00 1037.00,268.00 Z
           M 1045.00,271.00
           C 1045.00,271.00 1045.00,272.00 1045.00,272.00
             1045.00,272.00 1046.00,271.00 1046.00,271.00
             1046.00,271.00 1045.00,271.00 1045.00,271.00 Z
           M 800.00,272.00
           C 800.00,272.00 800.00,273.00 800.00,273.00
             800.00,273.00 801.00,272.00 801.00,272.00
             801.00,272.00 800.00,272.00 800.00,272.00 Z
           M 1046.00,274.00
           C 1046.00,274.00 1046.00,275.00 1046.00,275.00
             1046.00,275.00 1047.00,274.00 1047.00,274.00
             1047.00,274.00 1046.00,274.00 1046.00,274.00 Z
           M 1047.00,277.00
           C 1047.00,277.00 1047.00,278.00 1047.00,278.00
             1047.00,278.00 1048.00,277.00 1048.00,277.00
             1048.00,277.00 1047.00,277.00 1047.00,277.00 Z
           M 1240.00,277.00
           C 1240.00,277.00 1253.00,278.00 1253.00,278.00
             1253.00,278.00 1278.00,278.00 1278.00,278.00
             1278.00,278.00 1265.00,277.00 1265.00,277.00
             1265.00,277.00 1240.00,277.00 1240.00,277.00 Z
           M 1028.00,278.00
           C 1028.00,278.00 1024.00,283.00 1024.00,283.00
             1024.00,283.00 1028.00,278.00 1028.00,278.00 Z
           M 790.00,282.00
           C 790.00,282.00 790.00,283.00 790.00,283.00
             790.00,283.00 791.00,282.00 791.00,282.00
             791.00,282.00 790.00,282.00 790.00,282.00 Z
           M 1147.00,282.00
           C 1147.00,282.00 1147.00,283.00 1147.00,283.00
             1147.00,283.00 1148.00,282.00 1148.00,282.00
             1148.00,282.00 1147.00,282.00 1147.00,282.00 Z
           M 788.00,283.00
           C 788.00,283.00 788.00,284.00 788.00,284.00
             788.00,284.00 789.00,283.00 789.00,283.00
             789.00,283.00 788.00,283.00 788.00,283.00 Z
           M 785.00,284.00
           C 785.00,284.00 785.00,285.00 785.00,285.00
             785.00,285.00 786.00,284.00 786.00,284.00
             786.00,284.00 785.00,284.00 785.00,284.00 Z
           M 1144.00,284.00
           C 1144.00,284.00 1144.00,285.00 1144.00,285.00
             1144.00,285.00 1145.00,284.00 1145.00,284.00
             1145.00,284.00 1144.00,284.00 1144.00,284.00 Z
           M 1050.00,285.00
           C 1050.00,285.00 1050.00,286.00 1050.00,286.00
             1050.00,286.00 1051.00,285.00 1051.00,285.00
             1051.00,285.00 1050.00,285.00 1050.00,285.00 Z
           M 1051.00,288.00
           C 1051.00,288.00 1051.00,289.00 1051.00,289.00
             1051.00,289.00 1052.00,288.00 1052.00,288.00
             1052.00,288.00 1051.00,288.00 1051.00,288.00 Z
           M 1015.00,289.00
           C 1015.00,289.00 1015.00,290.00 1015.00,290.00
             1015.00,290.00 1016.00,289.00 1016.00,289.00
             1016.00,289.00 1015.00,289.00 1015.00,289.00 Z
           M 1136.00,290.00
           C 1136.00,290.00 1134.00,292.00 1134.00,292.00
             1134.00,292.00 1134.00,293.00 1134.00,293.00
             1134.00,293.00 1136.00,290.00 1136.00,290.00 Z
           M 1052.00,291.00
           C 1052.00,291.00 1052.00,292.00 1052.00,292.00
             1052.00,292.00 1053.00,291.00 1053.00,291.00
             1053.00,291.00 1052.00,291.00 1052.00,291.00 Z
           M 1028.00,293.00
           C 1028.00,293.00 1028.00,315.00 1028.00,315.00
             1028.00,315.00 1032.00,315.00 1032.00,315.00
             1029.32,310.19 1028.70,298.48 1032.00,294.00
             1032.00,294.00 1028.00,293.00 1028.00,293.00 Z
           M 1133.00,295.00
           C 1133.00,295.00 1133.00,296.00 1133.00,296.00
             1133.00,296.00 1134.00,295.00 1134.00,295.00
             1134.00,295.00 1133.00,295.00 1133.00,295.00 Z
           M 784.00,299.00
           C 784.00,299.00 741.00,347.58 741.00,347.58
             741.00,347.58 675.00,422.04 675.00,422.04
             675.00,422.04 658.57,441.00 658.57,441.00
             656.17,443.79 651.99,447.72 650.74,451.00
             648.40,457.13 650.62,464.92 657.00,467.42
             664.68,470.41 669.68,466.04 674.51,460.71
             674.51,460.71 698.95,433.00 698.95,433.00
             698.95,433.00 728.75,399.09 728.75,399.09
             728.75,399.09 765.25,358.00 765.25,358.00
             769.21,353.30 782.40,339.51 784.18,335.58
             785.02,333.72 784.97,331.98 785.00,330.00
             785.09,323.77 785.86,303.68 784.00,299.00 Z
           M 1017.00,301.00
           C 1017.00,301.00 1017.00,302.00 1017.00,302.00
             1017.00,302.00 1018.00,301.00 1018.00,301.00
             1018.00,301.00 1017.00,301.00 1017.00,301.00 Z
           M 1130.00,303.00
           C 1130.00,303.00 1130.00,304.00 1130.00,304.00
             1130.00,304.00 1131.00,303.00 1131.00,303.00
             1131.00,303.00 1130.00,303.00 1130.00,303.00 Z
           M 1019.00,306.00
           C 1019.00,306.00 1019.00,307.00 1019.00,307.00
             1019.00,307.00 1020.00,306.00 1020.00,306.00
             1020.00,306.00 1019.00,306.00 1019.00,306.00 Z
           M 1129.00,306.00
           C 1129.00,306.00 1129.00,307.00 1129.00,307.00
             1129.00,307.00 1130.00,306.00 1130.00,306.00
             1130.00,306.00 1129.00,306.00 1129.00,306.00 Z
           M 1128.00,309.00
           C 1128.00,309.00 1128.00,310.00 1128.00,310.00
             1128.00,310.00 1129.00,309.00 1129.00,309.00
             1129.00,309.00 1128.00,309.00 1128.00,309.00 Z
           M 288.00,312.74
           C 281.29,316.27 272.53,327.76 267.42,333.87
             267.42,333.87 234.91,371.07 234.91,371.07
             234.91,371.07 113.37,509.87 113.37,509.87
             113.37,509.87 74.75,554.00 74.75,554.00
             70.31,559.27 61.74,567.25 61.11,574.00
             60.07,585.21 72.24,590.88 80.91,584.50
             83.95,582.27 93.86,570.08 97.01,566.42
             97.01,566.42 123.91,536.00 123.91,536.00
             123.91,536.00 173.39,479.09 173.39,479.09
             173.39,479.09 217.71,429.00 217.71,429.00
             217.71,429.00 271.92,367.00 271.92,367.00
             271.92,367.00 293.50,342.16 293.50,342.16
             296.37,338.86 302.41,332.66 303.87,328.91
             307.54,319.48 299.98,309.88 288.00,312.74 Z
           M 910.00,429.00
           C 910.00,429.00 934.00,429.00 934.00,429.00
             934.00,429.00 941.83,428.26 941.83,428.26
             941.83,428.26 950.28,420.00 950.28,420.00
             950.28,420.00 964.71,403.58 964.71,403.58
             964.71,403.58 1002.92,359.96 1002.92,359.96
             1002.92,359.96 1029.00,331.00 1029.00,331.00
             1029.00,331.00 1022.00,312.00 1022.00,312.00
             1022.00,312.00 1012.00,313.17 1012.00,313.17
             1012.00,313.17 1001.09,323.96 1001.09,323.96
             1001.09,323.96 985.37,341.87 985.37,341.87
             985.37,341.87 935.75,398.68 935.75,398.68
             935.75,398.68 910.00,429.00 910.00,429.00 Z
           M 822.00,313.00
           C 822.00,313.00 822.00,314.00 822.00,314.00
             822.00,314.00 823.00,313.00 823.00,313.00
             823.00,313.00 822.00,313.00 822.00,313.00 Z
           M 1126.00,314.00
           C 1126.00,314.00 1126.00,315.00 1126.00,315.00
             1126.00,315.00 1127.00,314.00 1127.00,314.00
             1127.00,314.00 1126.00,314.00 1126.00,314.00 Z
           M 1165.00,315.00
           C 1165.00,315.00 1165.00,316.00 1165.00,316.00
             1165.00,316.00 1166.00,315.00 1166.00,315.00
             1166.00,315.00 1165.00,315.00 1165.00,315.00 Z
           M 1061.00,316.00
           C 1061.00,316.00 1061.00,317.00 1061.00,317.00
             1061.00,317.00 1062.00,316.00 1062.00,316.00
             1062.00,316.00 1061.00,316.00 1061.00,316.00 Z
           M 1125.00,317.00
           C 1125.00,317.00 1125.00,318.00 1125.00,318.00
             1125.00,318.00 1126.00,317.00 1126.00,317.00
             1126.00,317.00 1125.00,317.00 1125.00,317.00 Z
           M 1062.00,319.00
           C 1062.00,319.00 1062.00,320.00 1062.00,320.00
             1062.00,320.00 1063.00,319.00 1063.00,319.00
             1063.00,319.00 1062.00,319.00 1062.00,319.00 Z
           M 1124.00,320.00
           C 1124.00,320.00 1124.00,321.00 1124.00,321.00
             1124.00,321.00 1125.00,320.00 1125.00,320.00
             1125.00,320.00 1124.00,320.00 1124.00,320.00 Z
           M 1163.00,320.00
           C 1163.00,320.00 1163.00,321.00 1163.00,321.00
             1163.00,321.00 1164.00,320.00 1164.00,320.00
             1164.00,320.00 1163.00,320.00 1163.00,320.00 Z
           M 1063.00,322.00
           C 1063.00,322.00 1063.00,323.00 1063.00,323.00
             1063.00,323.00 1064.00,322.00 1064.00,322.00
             1064.00,322.00 1063.00,322.00 1063.00,322.00 Z
           M 812.00,323.00
           C 812.00,323.00 812.00,324.00 812.00,324.00
             812.00,324.00 813.00,323.00 813.00,323.00
             813.00,323.00 812.00,323.00 812.00,323.00 Z
           M 1052.00,323.00
           C 1052.00,323.00 1052.00,324.00 1052.00,324.00
             1052.00,324.00 1053.00,323.00 1053.00,323.00
             1053.00,323.00 1052.00,323.00 1052.00,323.00 Z
           M 1123.00,323.00
           C 1123.00,323.00 1123.00,324.00 1123.00,324.00
             1123.00,324.00 1124.00,323.00 1124.00,323.00
             1124.00,323.00 1123.00,323.00 1123.00,323.00 Z
           M 1049.00,324.00
           C 1049.00,324.00 1049.00,325.00 1049.00,325.00
             1049.00,325.00 1050.00,324.00 1050.00,324.00
             1050.00,324.00 1049.00,324.00 1049.00,324.00 Z
           M 1047.00,325.00
           C 1047.00,325.00 1047.00,326.00 1047.00,326.00
             1047.00,326.00 1048.00,325.00 1048.00,325.00
             1048.00,325.00 1047.00,325.00 1047.00,325.00 Z
           M 1122.00,325.00
           C 1122.00,325.00 1122.00,326.00 1122.00,326.00
             1122.00,326.00 1123.00,325.00 1123.00,325.00
             1123.00,325.00 1122.00,325.00 1122.00,325.00 Z
           M 1161.00,325.00
           C 1161.00,325.00 1161.00,326.00 1161.00,326.00
             1161.00,326.00 1162.00,325.00 1162.00,325.00
             1162.00,325.00 1161.00,325.00 1161.00,325.00 Z
           M 1240.00,325.00
           C 1241.90,332.82 1241.00,362.02 1241.00,372.00
             1241.00,372.00 1242.00,358.00 1242.00,358.00
             1242.00,358.00 1242.00,332.00 1242.00,332.00
             1242.00,332.00 1240.00,325.00 1240.00,325.00 Z
           M 1044.00,327.00
           C 1044.00,327.00 1044.00,328.00 1044.00,328.00
             1044.00,328.00 1045.00,327.00 1045.00,327.00
             1045.00,327.00 1044.00,327.00 1044.00,327.00 Z
           M 1121.00,328.00
           C 1121.00,328.00 1121.00,329.00 1121.00,329.00
             1121.00,329.00 1122.00,328.00 1122.00,328.00
             1122.00,328.00 1121.00,328.00 1121.00,328.00 Z
           M 1239.00,328.00
           C 1239.00,328.00 1166.29,411.00 1166.29,411.00
             1166.29,411.00 1071.09,520.00 1071.09,520.00
             1071.09,520.00 1042.61,552.91 1042.61,552.91
             1039.35,556.65 1031.88,564.14 1029.64,568.04
             1024.59,576.85 1029.72,587.86 1041.00,586.89
             1048.54,586.25 1053.83,578.20 1058.42,572.73
             1058.42,572.73 1093.09,532.93 1093.09,532.93
             1093.09,532.93 1166.69,449.09 1166.69,449.09
             1166.69,449.09 1210.34,399.00 1210.34,399.00
             1210.34,399.00 1230.75,375.58 1230.75,375.58
             1236.13,369.46 1239.85,367.66 1240.00,359.00
             1240.00,359.00 1240.00,336.00 1240.00,336.00
             1239.99,332.84 1240.18,330.98 1239.00,328.00 Z
           M 1119.00,330.00
           C 1119.00,330.00 1104.05,347.01 1104.05,347.01
             1104.05,347.01 1092.54,360.17 1092.54,360.17
             1092.54,360.17 1082.60,373.09 1082.60,373.09
             1082.60,373.09 1084.95,382.00 1084.95,382.00
             1084.95,382.00 1091.00,398.00 1091.00,398.00
             1098.98,394.22 1101.15,385.64 1103.95,378.00
             1103.95,378.00 1121.00,330.00 1121.00,330.00
             1121.00,330.00 1119.00,330.00 1119.00,330.00 Z
           M 1159.00,330.00
           C 1159.00,330.00 1159.00,331.00 1159.00,331.00
             1159.00,331.00 1160.00,330.00 1160.00,330.00
             1160.00,330.00 1159.00,330.00 1159.00,330.00 Z
           M 1158.00,333.00
           C 1158.00,333.00 1158.00,334.00 1158.00,334.00
             1158.00,334.00 1159.00,333.00 1159.00,333.00
             1159.00,333.00 1158.00,333.00 1158.00,333.00 Z
           M 1030.00,335.00
           C 1030.00,335.00 1030.00,336.00 1030.00,336.00
             1030.00,336.00 1031.00,335.00 1031.00,335.00
             1031.00,335.00 1030.00,335.00 1030.00,335.00 Z
           M 799.00,336.00
           C 799.00,336.00 799.00,337.00 799.00,337.00
             799.00,337.00 800.00,336.00 800.00,336.00
             800.00,336.00 799.00,336.00 799.00,336.00 Z
           M 876.00,337.00
           C 876.00,337.00 876.00,338.00 876.00,338.00
             876.00,338.00 877.00,337.00 877.00,337.00
             877.00,337.00 876.00,337.00 876.00,337.00 Z
           M 510.00,338.57
           C 502.53,341.49 495.76,350.84 490.59,357.00
             490.59,357.00 458.83,393.00 458.83,393.00
             458.83,393.00 334.15,534.00 334.15,534.00
             334.15,534.00 313.50,557.28 313.50,557.28
             310.79,560.36 305.04,566.35 303.72,570.00
             300.19,579.83 307.56,589.07 318.00,586.70
             323.75,585.40 330.11,576.32 334.08,572.00
             334.08,572.00 369.28,532.00 369.28,532.00
             369.28,532.00 497.72,387.00 497.72,387.00
             497.72,387.00 514.16,368.00 514.16,368.00
             517.03,364.79 522.95,358.76 524.56,355.00
             528.91,344.82 519.98,336.85 510.00,338.57 Z
           M 874.00,338.00
           C 874.00,338.00 874.00,339.00 874.00,339.00
             874.00,339.00 875.00,338.00 875.00,338.00
             875.00,338.00 874.00,338.00 874.00,338.00 Z
           M 1031.00,338.00
           C 1031.00,338.00 1031.00,339.00 1031.00,339.00
             1031.00,339.00 1032.00,338.00 1032.00,338.00
             1032.00,338.00 1031.00,338.00 1031.00,338.00 Z
           M 1156.00,338.00
           C 1156.00,338.00 1156.00,339.00 1156.00,339.00
             1156.00,339.00 1157.00,338.00 1157.00,338.00
             1157.00,338.00 1156.00,338.00 1156.00,338.00 Z
           M 870.00,340.00
           C 870.00,340.00 870.00,341.00 870.00,341.00
             870.00,341.00 871.00,340.00 871.00,340.00
             871.00,340.00 870.00,340.00 870.00,340.00 Z
           M 1032.00,340.00
           C 1032.00,340.00 1032.00,341.00 1032.00,341.00
             1032.00,341.00 1033.00,340.00 1033.00,340.00
             1033.00,340.00 1032.00,340.00 1032.00,340.00 Z
           M 792.00,341.00
           C 792.00,341.00 790.00,343.00 790.00,343.00
             790.00,343.00 790.00,344.00 790.00,344.00
             790.00,344.00 792.00,341.00 792.00,341.00 Z
           M 887.00,341.00
           C 887.00,341.00 887.00,342.00 887.00,342.00
             887.00,342.00 888.00,341.00 888.00,341.00
             888.00,341.00 887.00,341.00 887.00,341.00 Z
           M 1155.00,341.00
           C 1155.00,341.00 1155.00,342.00 1155.00,342.00
             1155.00,342.00 1156.00,341.00 1156.00,341.00
             1156.00,341.00 1155.00,341.00 1155.00,341.00 Z
           M 1154.00,343.00
           C 1154.00,343.00 1154.00,344.00 1154.00,344.00
             1154.00,344.00 1155.00,343.00 1155.00,343.00
             1155.00,343.00 1154.00,343.00 1154.00,343.00 Z
           M 862.00,346.00
           C 862.00,346.00 862.00,347.00 862.00,347.00
             862.00,347.00 863.00,346.00 863.00,346.00
             863.00,346.00 862.00,346.00 862.00,346.00 Z
           M 1153.00,346.00
           C 1153.00,346.00 1153.00,347.00 1153.00,347.00
             1153.00,347.00 1154.00,346.00 1154.00,346.00
             1154.00,346.00 1153.00,346.00 1153.00,346.00 Z
           M 859.00,348.00
           C 859.00,348.00 859.00,349.00 859.00,349.00
             859.00,349.00 860.00,348.00 860.00,348.00
             860.00,348.00 859.00,348.00 859.00,348.00 Z
           M 856.00,350.00
           C 856.00,350.00 856.00,351.00 856.00,351.00
             856.00,351.00 857.00,350.00 857.00,350.00
             857.00,350.00 856.00,350.00 856.00,350.00 Z
           M 1151.00,351.00
           C 1151.00,351.00 1151.00,352.00 1151.00,352.00
             1151.00,352.00 1152.00,351.00 1152.00,351.00
             1152.00,351.00 1151.00,351.00 1151.00,351.00 Z
           M 1150.00,354.00
           C 1150.00,354.00 1150.00,355.00 1150.00,355.00
             1150.00,355.00 1151.00,354.00 1151.00,354.00
             1151.00,354.00 1150.00,354.00 1150.00,354.00 Z
           M 823.00,424.00
           C 823.00,424.00 862.42,380.00 862.42,380.00
             862.42,380.00 883.00,355.00 883.00,355.00
             883.00,355.00 860.00,355.00 860.00,355.00
             860.00,355.00 853.09,355.60 853.09,355.60
             853.09,355.60 840.18,367.96 840.18,367.96
             840.18,367.96 823.98,387.00 823.98,387.00
             823.98,387.00 823.00,399.00 823.00,399.00
             823.00,399.00 823.00,424.00 823.00,424.00 Z
           M 1149.00,356.00
           C 1149.00,356.00 1149.00,357.00 1149.00,357.00
             1149.00,357.00 1150.00,356.00 1150.00,356.00
             1150.00,356.00 1149.00,356.00 1149.00,356.00 Z
           M 1148.00,359.00
           C 1148.00,359.00 1148.00,360.00 1148.00,360.00
             1148.00,360.00 1149.00,359.00 1149.00,359.00
             1149.00,359.00 1148.00,359.00 1148.00,359.00 Z
           M 1146.00,364.00
           C 1146.00,364.00 1146.00,365.00 1146.00,365.00
             1146.00,365.00 1147.00,364.00 1147.00,364.00
             1147.00,364.00 1146.00,364.00 1146.00,364.00 Z
           M 1079.00,366.00
           C 1079.00,366.00 1079.00,367.00 1079.00,367.00
             1079.00,367.00 1080.00,366.00 1080.00,366.00
             1080.00,366.00 1079.00,366.00 1079.00,366.00 Z
           M 1145.00,367.00
           C 1145.00,367.00 1145.00,368.00 1145.00,368.00
             1145.00,368.00 1146.00,367.00 1146.00,367.00
             1146.00,367.00 1145.00,367.00 1145.00,367.00 Z
           M 1046.00,368.00
           C 1046.00,368.00 1046.00,369.00 1046.00,369.00
             1046.00,369.00 1047.00,368.00 1047.00,368.00
             1047.00,368.00 1046.00,368.00 1046.00,368.00 Z
           M 1043.00,369.00
           C 1043.00,369.00 1043.00,370.00 1043.00,370.00
             1043.00,370.00 1044.00,369.00 1044.00,369.00
             1044.00,369.00 1043.00,369.00 1043.00,369.00 Z
           M 1048.00,369.00
           C 1048.00,369.00 1048.00,370.00 1048.00,370.00
             1048.00,370.00 1049.00,369.00 1049.00,369.00
             1049.00,369.00 1048.00,369.00 1048.00,369.00 Z
           M 1080.00,369.00
           C 1080.00,369.00 1080.00,370.00 1080.00,370.00
             1080.00,370.00 1081.00,369.00 1081.00,369.00
             1081.00,369.00 1080.00,369.00 1080.00,369.00 Z
           M 1053.00,371.00
           C 1053.00,371.00 1064.00,372.00 1064.00,372.00
             1064.00,372.00 1053.00,371.00 1053.00,371.00 Z
           M 1143.00,372.00
           C 1143.00,372.00 1143.00,373.00 1143.00,373.00
             1143.00,373.00 1144.00,372.00 1144.00,372.00
             1144.00,372.00 1143.00,372.00 1143.00,372.00 Z
           M 1045.00,374.00
           C 1045.00,374.00 1045.00,375.00 1045.00,375.00
             1045.00,375.00 1046.00,374.00 1046.00,374.00
             1046.00,374.00 1045.00,374.00 1045.00,374.00 Z
           M 1142.00,375.00
           C 1142.00,375.00 1142.00,376.00 1142.00,376.00
             1142.00,376.00 1143.00,375.00 1143.00,375.00
             1143.00,375.00 1142.00,375.00 1142.00,375.00 Z
           M 1046.00,377.00
           C 1046.00,377.00 1046.00,378.00 1046.00,378.00
             1046.00,378.00 1047.00,377.00 1047.00,377.00
             1047.00,377.00 1046.00,377.00 1046.00,377.00 Z
           M 1048.00,382.00
           C 1048.00,382.00 1048.00,383.00 1048.00,383.00
             1048.00,383.00 1049.00,382.00 1049.00,382.00
             1049.00,382.00 1048.00,382.00 1048.00,382.00 Z
           M 1049.00,385.00
           C 1049.00,385.00 1049.00,386.00 1049.00,386.00
             1049.00,386.00 1050.00,385.00 1050.00,385.00
             1050.00,385.00 1049.00,385.00 1049.00,385.00 Z
           M 1138.00,385.00
           C 1138.00,385.00 1138.00,386.00 1138.00,386.00
             1138.00,386.00 1139.00,385.00 1139.00,385.00
             1139.00,385.00 1138.00,385.00 1138.00,385.00 Z
           M 1051.00,390.00
           C 1051.00,390.00 1051.00,391.00 1051.00,391.00
             1051.00,391.00 1052.00,390.00 1052.00,390.00
             1052.00,390.00 1051.00,390.00 1051.00,390.00 Z
           M 814.00,391.00
           C 814.00,391.00 810.00,396.00 810.00,396.00
             810.00,396.00 814.00,391.00 814.00,391.00 Z
           M 1135.00,393.00
           C 1135.00,393.00 1135.00,394.00 1135.00,394.00
             1135.00,394.00 1136.00,393.00 1136.00,393.00
             1136.00,393.00 1135.00,393.00 1135.00,393.00 Z
           M 1053.00,395.00
           C 1053.00,395.00 1053.00,396.00 1053.00,396.00
             1053.00,396.00 1054.00,395.00 1054.00,395.00
             1054.00,395.00 1053.00,395.00 1053.00,395.00 Z
           M 1097.00,395.00
           C 1097.00,395.00 1097.00,396.00 1097.00,396.00
             1097.00,396.00 1098.00,395.00 1098.00,395.00
             1098.00,395.00 1097.00,395.00 1097.00,395.00 Z
           M 1134.00,396.00
           C 1134.00,396.00 1134.00,397.00 1134.00,397.00
             1134.00,397.00 1135.00,396.00 1135.00,396.00
             1135.00,396.00 1134.00,396.00 1134.00,396.00 Z
           M 1054.00,398.00
           C 1054.00,398.00 1054.00,399.00 1054.00,399.00
             1054.00,399.00 1055.00,398.00 1055.00,398.00
             1055.00,398.00 1054.00,398.00 1054.00,398.00 Z
           M 1096.00,398.00
           C 1096.00,398.00 1096.00,399.00 1096.00,399.00
             1096.00,399.00 1097.00,398.00 1097.00,398.00
             1097.00,398.00 1096.00,398.00 1096.00,398.00 Z
           M 1133.00,398.00
           C 1133.00,398.00 1133.00,399.00 1133.00,399.00
             1133.00,399.00 1134.00,398.00 1134.00,398.00
             1134.00,398.00 1133.00,398.00 1133.00,398.00 Z
           M 806.00,399.00
           C 806.00,399.00 799.00,407.00 799.00,407.00
             802.10,404.77 804.99,402.81 806.00,399.00 Z
           M 1091.00,399.00
           C 1091.00,399.00 1091.00,400.00 1091.00,400.00
             1091.00,400.00 1092.00,399.00 1092.00,399.00
             1092.00,399.00 1091.00,399.00 1091.00,399.00 Z
           M 1095.00,401.00
           C 1095.00,401.00 1095.00,402.00 1095.00,402.00
             1095.00,402.00 1096.00,401.00 1096.00,401.00
             1096.00,401.00 1095.00,401.00 1095.00,401.00 Z
           M 1132.00,401.00
           C 1132.00,401.00 1132.00,402.00 1132.00,402.00
             1132.00,402.00 1133.00,401.00 1133.00,401.00
             1133.00,401.00 1132.00,401.00 1132.00,401.00 Z
           M 1056.00,403.00
           C 1050.50,406.40 1041.78,417.67 1036.93,423.00
             1036.93,423.00 997.49,467.28 997.49,467.28
             997.49,467.28 957.08,512.99 957.08,512.99
             957.08,512.99 928.49,545.28 928.49,545.28
             928.49,545.28 909.56,567.00 909.56,567.00
             904.22,574.57 906.76,585.89 917.00,586.89
             925.35,587.71 928.88,582.61 933.87,577.00
             933.87,577.00 960.26,547.28 960.26,547.28
             960.26,547.28 997.87,504.99 997.87,504.99
             997.87,504.99 1033.09,465.00 1033.09,465.00
             1033.09,465.00 1055.28,439.96 1055.28,439.96
             1057.51,437.48 1064.00,430.96 1064.69,427.96
             1065.25,425.55 1063.79,422.28 1062.95,420.00
             1062.95,420.00 1056.00,403.00 1056.00,403.00 Z
           M 1093.00,406.00
           C 1093.00,406.00 1093.00,407.00 1093.00,407.00
             1093.00,407.00 1094.00,406.00 1094.00,406.00
             1094.00,406.00 1093.00,406.00 1093.00,406.00 Z
           M 1130.00,406.00
           C 1130.00,406.00 1130.00,407.00 1130.00,407.00
             1130.00,407.00 1131.00,406.00 1131.00,406.00
             1131.00,406.00 1130.00,406.00 1130.00,406.00 Z
           M 796.00,408.00
           C 796.00,408.00 796.00,409.00 796.00,409.00
             796.00,409.00 797.00,408.00 797.00,408.00
             797.00,408.00 796.00,408.00 796.00,408.00 Z
           M 1090.00,408.00
           C 1090.00,408.00 1090.00,409.00 1090.00,409.00
             1090.00,409.00 1091.00,408.00 1091.00,408.00
             1091.00,408.00 1090.00,408.00 1090.00,408.00 Z
           M 1092.00,409.00
           C 1092.00,409.00 1092.00,410.00 1092.00,410.00
             1092.00,410.00 1093.00,409.00 1093.00,409.00
             1093.00,409.00 1092.00,409.00 1092.00,409.00 Z
           M 793.00,410.00
           C 793.00,410.00 793.00,411.00 793.00,411.00
             793.00,411.00 794.00,410.00 794.00,410.00
             794.00,410.00 793.00,410.00 793.00,410.00 Z
           M 791.00,411.00
           C 791.00,411.00 791.00,412.00 791.00,412.00
             791.00,412.00 792.00,411.00 792.00,411.00
             792.00,411.00 791.00,411.00 791.00,411.00 Z
           M 789.00,412.00
           C 789.00,412.00 789.00,413.00 789.00,413.00
             789.00,413.00 790.00,412.00 790.00,412.00
             790.00,412.00 789.00,412.00 789.00,412.00 Z
           M 1091.00,412.00
           C 1091.00,412.00 1091.00,413.00 1091.00,413.00
             1091.00,413.00 1092.00,412.00 1092.00,412.00
             1092.00,412.00 1091.00,412.00 1091.00,412.00 Z
           M 787.00,413.00
           C 787.00,413.00 787.00,414.00 787.00,414.00
             787.00,414.00 788.00,413.00 788.00,413.00
             788.00,413.00 787.00,413.00 787.00,413.00 Z
           M 1127.00,414.00
           C 1127.00,414.00 1127.00,415.00 1127.00,415.00
             1127.00,415.00 1128.00,414.00 1128.00,414.00
             1128.00,414.00 1127.00,414.00 1127.00,414.00 Z
           M 318.00,416.65
           C 310.78,419.68 307.69,425.29 302.72,431.00
             302.72,431.00 279.85,457.01 279.85,457.01
             279.85,457.01 247.87,494.00 247.87,494.00
             247.87,494.00 211.41,536.00 211.41,536.00
             211.41,536.00 184.39,567.09 184.39,567.09
             177.65,577.65 185.02,590.05 197.91,586.46
             201.76,585.38 205.25,580.87 207.98,578.00
             207.98,578.00 230.01,552.42 230.01,552.42
             230.01,552.42 305.71,465.58 305.71,465.58
             305.71,465.58 327.08,441.01 327.08,441.01
             330.71,436.70 334.37,433.15 333.64,427.00
             332.58,418.14 326.24,415.02 318.00,416.65 Z
           M 1087.00,416.00
           C 1087.00,416.00 1087.00,417.00 1087.00,417.00
             1087.00,417.00 1088.00,416.00 1088.00,416.00
             1088.00,416.00 1087.00,416.00 1087.00,416.00 Z
           M 1086.00,419.00
           C 1086.00,419.00 1086.00,420.00 1086.00,420.00
             1086.00,420.00 1087.00,419.00 1087.00,419.00
             1087.00,419.00 1086.00,419.00 1086.00,419.00 Z
           M 1125.00,419.00
           C 1125.00,419.00 1125.00,420.00 1125.00,420.00
             1125.00,420.00 1126.00,419.00 1126.00,419.00
             1126.00,419.00 1125.00,419.00 1125.00,419.00 Z
           M 1088.00,420.00
           C 1088.00,420.00 1088.00,421.00 1088.00,421.00
             1088.00,421.00 1089.00,420.00 1089.00,420.00
             1089.00,420.00 1088.00,420.00 1088.00,420.00 Z
           M 1124.00,422.00
           C 1124.00,422.00 1124.00,423.00 1124.00,423.00
             1124.00,423.00 1125.00,422.00 1125.00,422.00
             1125.00,422.00 1124.00,422.00 1124.00,422.00 Z
           M 1122.00,427.00
           C 1122.00,427.00 1122.00,428.00 1122.00,428.00
             1122.00,428.00 1123.00,427.00 1123.00,427.00
             1123.00,427.00 1122.00,427.00 1122.00,427.00 Z
           M 0.00,539.00
           C 0.00,539.00 27.27,509.00 27.27,509.00
             27.27,509.00 69.58,461.00 69.58,461.00
             75.99,453.52 91.81,440.74 79.79,430.57
             76.31,427.63 69.27,427.10 65.28,429.29
             61.62,431.30 49.61,445.91 45.95,450.00
             45.95,450.00 12.42,488.00 12.42,488.00
             5.09,496.49 0.02,498.25 0.00,510.00
             0.00,510.00 0.00,539.00 0.00,539.00 Z
           M 946.00,429.00
           C 946.00,429.00 946.00,430.00 946.00,430.00
             946.00,430.00 947.00,429.00 947.00,429.00
             947.00,429.00 946.00,429.00 946.00,429.00 Z
           M 949.00,430.00
           C 949.00,430.00 949.00,431.00 949.00,431.00
             949.00,431.00 950.00,430.00 950.00,430.00
             950.00,430.00 949.00,430.00 949.00,430.00 Z
           M 947.00,431.00
           C 947.00,431.00 947.00,432.00 947.00,432.00
             947.00,432.00 948.00,431.00 948.00,431.00
             948.00,431.00 947.00,431.00 947.00,431.00 Z
           M 784.00,432.00
           C 784.00,432.00 757.42,463.00 757.42,463.00
             757.42,463.00 691.75,538.72 691.75,538.72
             691.75,538.72 672.49,561.28 672.49,561.28
             667.91,566.45 663.26,571.48 665.51,579.00
             667.65,586.15 676.48,589.13 682.99,585.83
             687.39,583.59 698.20,569.51 702.34,565.00
             702.34,565.00 762.13,496.00 762.13,496.00
             768.54,488.59 789.46,465.62 793.00,459.00
             780.18,450.96 787.62,441.13 784.00,432.00 Z
           M 819.00,432.00
           C 819.00,432.00 819.00,433.00 819.00,433.00
             819.00,433.00 820.00,432.00 820.00,432.00
             820.00,432.00 819.00,432.00 819.00,432.00 Z
           M 945.00,432.00
           C 945.00,432.00 945.00,433.00 945.00,433.00
             945.00,433.00 946.00,432.00 946.00,432.00
             946.00,432.00 945.00,432.00 945.00,432.00 Z
           M 1067.00,432.00
           C 1067.00,432.00 1067.00,433.00 1067.00,433.00
             1067.00,433.00 1068.00,432.00 1068.00,432.00
             1068.00,432.00 1067.00,432.00 1067.00,432.00 Z
           M 1119.00,435.00
           C 1119.00,435.00 1119.00,436.00 1119.00,436.00
             1119.00,436.00 1120.00,435.00 1120.00,435.00
             1120.00,435.00 1119.00,435.00 1119.00,435.00 Z
           M 883.00,436.00
           C 883.00,436.00 883.00,437.00 883.00,437.00
             883.00,437.00 884.00,436.00 884.00,436.00
             884.00,436.00 883.00,436.00 883.00,436.00 Z
           M 1118.00,438.00
           C 1118.00,438.00 1118.00,439.00 1118.00,439.00
             1118.00,439.00 1119.00,438.00 1119.00,438.00
             1119.00,438.00 1118.00,438.00 1118.00,438.00 Z
           M 882.00,439.00
           C 882.00,439.00 882.00,440.00 882.00,440.00
             882.00,440.00 883.00,439.00 883.00,439.00
             883.00,439.00 882.00,439.00 882.00,439.00 Z
           M 1070.00,440.00
           C 1070.00,440.00 1070.00,441.00 1070.00,441.00
             1070.00,441.00 1071.00,440.00 1071.00,440.00
             1071.00,440.00 1070.00,440.00 1070.00,440.00 Z
           M 1117.00,440.00
           C 1117.00,440.00 1117.00,441.00 1117.00,441.00
             1117.00,441.00 1118.00,440.00 1118.00,440.00
             1118.00,440.00 1117.00,440.00 1117.00,440.00 Z
           M 881.00,441.00
           C 881.00,441.00 881.00,442.00 881.00,442.00
             881.00,442.00 882.00,441.00 882.00,441.00
             882.00,441.00 881.00,441.00 881.00,441.00 Z
           M 813.00,442.00
           C 813.00,442.00 813.00,443.00 813.00,443.00
             813.00,443.00 814.00,442.00 814.00,442.00
             814.00,442.00 813.00,442.00 813.00,442.00 Z
           M 935.00,442.00
           C 935.00,442.00 935.00,443.00 935.00,443.00
             935.00,443.00 936.00,442.00 936.00,442.00
             936.00,442.00 935.00,442.00 935.00,442.00 Z
           M 1116.00,443.00
           C 1116.00,443.00 1116.00,444.00 1116.00,444.00
             1116.00,444.00 1117.00,443.00 1117.00,443.00
             1117.00,443.00 1116.00,443.00 1116.00,443.00 Z
           M 934.00,444.00
           C 934.00,444.00 934.00,445.00 934.00,445.00
             934.00,445.00 935.00,444.00 935.00,444.00
             935.00,444.00 934.00,444.00 934.00,444.00 Z
           M 1072.00,445.00
           C 1072.00,445.00 1072.00,446.00 1072.00,446.00
             1072.00,446.00 1073.00,445.00 1073.00,445.00
             1073.00,445.00 1072.00,445.00 1072.00,445.00 Z
           M 809.00,447.00
           C 809.00,447.00 809.00,448.00 809.00,448.00
             809.00,448.00 810.00,447.00 810.00,447.00
             810.00,447.00 809.00,447.00 809.00,447.00 Z
           M 933.00,447.00
           C 933.00,447.00 933.00,448.00 933.00,448.00
             933.00,448.00 934.00,447.00 934.00,447.00
             934.00,447.00 933.00,447.00 933.00,447.00 Z
           M 1073.00,448.00
           C 1073.00,448.00 1073.00,449.00 1073.00,449.00
             1073.00,449.00 1074.00,448.00 1074.00,448.00
             1074.00,448.00 1073.00,448.00 1073.00,448.00 Z
           M 1114.00,448.00
           C 1114.00,448.00 1114.00,449.00 1114.00,449.00
             1114.00,449.00 1115.00,448.00 1115.00,448.00
             1115.00,448.00 1114.00,448.00 1114.00,448.00 Z
           M 871.00,451.00
           C 871.00,451.00 871.00,452.00 871.00,452.00
             871.00,452.00 872.00,451.00 872.00,451.00
             872.00,451.00 871.00,451.00 871.00,451.00 Z
           M 1075.00,453.00
           C 1075.00,453.00 1075.00,454.00 1075.00,454.00
             1075.00,454.00 1076.00,453.00 1076.00,453.00
             1076.00,453.00 1075.00,453.00 1075.00,453.00 Z
           M 1112.00,453.00
           C 1112.00,453.00 1112.00,454.00 1112.00,454.00
             1112.00,454.00 1113.00,453.00 1113.00,453.00
             1113.00,453.00 1112.00,453.00 1112.00,453.00 Z
           M 1076.00,455.00
           C 1076.00,455.00 1076.00,456.00 1076.00,456.00
             1076.00,456.00 1077.00,455.00 1077.00,455.00
             1077.00,455.00 1076.00,455.00 1076.00,455.00 Z
           M 864.00,456.00
           C 864.00,456.00 864.00,457.00 864.00,457.00
             864.00,457.00 865.00,456.00 865.00,456.00
             865.00,456.00 864.00,456.00 864.00,456.00 Z
           M 1077.00,457.00
           C 1077.00,457.00 1077.00,458.00 1077.00,458.00
             1077.00,458.00 1078.00,457.00 1078.00,457.00
             1078.00,457.00 1077.00,457.00 1077.00,457.00 Z
           M 863.00,459.00
           C 863.00,459.00 863.00,460.00 863.00,460.00
             863.00,460.00 864.00,459.00 864.00,459.00
             864.00,459.00 863.00,459.00 863.00,459.00 Z
           M 933.00,460.00
           C 933.00,460.00 933.00,461.00 933.00,461.00
             933.00,461.00 934.00,460.00 934.00,460.00
             934.00,460.00 933.00,460.00 933.00,460.00 Z
           M 797.00,461.00
           C 797.00,461.00 797.00,462.00 797.00,462.00
             797.00,462.00 798.00,461.00 798.00,461.00
             798.00,461.00 797.00,461.00 797.00,461.00 Z
           M 912.00,462.00
           C 912.00,462.00 888.00,462.00 888.00,462.00
             885.75,462.00 882.52,461.81 880.51,462.82
             877.95,464.12 864.95,479.28 862.29,482.42
             862.29,482.42 809.31,542.91 809.31,542.91
             809.31,542.91 793.74,560.72 793.74,560.72
             791.07,563.77 787.70,567.03 786.57,571.00
             784.51,578.24 787.79,586.29 796.00,586.94
             798.66,587.15 801.60,586.92 804.00,585.69
             807.85,583.70 811.16,579.30 813.92,576.00
             813.92,576.00 827.91,560.00 827.91,560.00
             827.91,560.00 865.71,517.00 865.71,517.00
             865.71,517.00 879.80,500.42 879.80,500.42
             879.80,500.42 901.00,476.42 901.00,476.42
             904.97,471.88 909.58,467.59 912.00,462.00 Z
           M 1082.00,462.00
           C 1082.00,462.00 1082.00,463.00 1082.00,463.00
             1082.00,463.00 1083.00,462.00 1083.00,462.00
             1083.00,462.00 1082.00,462.00 1082.00,462.00 Z
           M 1086.00,464.00
           C 1086.00,464.00 1086.00,465.00 1086.00,465.00
             1086.00,465.00 1087.00,464.00 1087.00,464.00
             1087.00,464.00 1086.00,464.00 1086.00,464.00 Z
           M 1101.00,464.00
           C 1101.00,464.00 1101.00,465.00 1101.00,465.00
             1101.00,465.00 1102.00,464.00 1102.00,464.00
             1102.00,464.00 1101.00,464.00 1101.00,464.00 Z
           M 1090.00,465.00
           C 1090.00,465.00 1097.00,466.00 1097.00,466.00
             1097.00,466.00 1090.00,465.00 1090.00,465.00 Z
           M 614.00,494.65
           C 606.42,497.84 595.08,512.39 589.42,519.00
             589.42,519.00 558.50,553.84 558.50,553.84
             555.05,557.82 548.99,563.93 546.42,568.00
             540.01,578.15 548.17,590.03 560.00,586.49
             565.76,584.77 577.00,571.04 581.25,566.00
             581.25,566.00 595.49,550.17 595.49,550.17
             595.49,550.17 610.34,533.00 610.34,533.00
             613.97,529.06 625.46,516.81 627.79,512.91
             633.64,503.14 626.28,492.22 614.00,494.65 Z" />
</svg>
