<?xml version="1.0" encoding="UTF-8" standalone="no"?>
<!DOCTYPE svg PUBLIC "-//W3C//DTD SVG 20010904//EN"
              "http://www.w3.org/TR/2001/REC-SVG-20010904/DTD/svg10.dtd">

<svg xmlns="http://www.w3.org/2000/svg"
     width="37.9307mm" height="43.3494mm"
     viewBox="0 0 448 512">
  <path id="ne"
        fill="none" stroke="black" stroke-width="1"
        d="M 275.00,304.00
           C 275.00,304.00 275.00,358.00 275.00,358.00
             275.00,358.00 286.00,358.00 286.00,358.00
             286.00,358.00 286.00,322.00 286.00,322.00
             286.00,322.00 299.58,346.00 299.58,346.00
             299.58,346.00 306.63,357.01 306.63,357.01
             306.63,357.01 318.00,358.00 318.00,358.00
             318.00,358.00 318.00,325.00 318.00,325.00
             318.00,325.00 319.00,304.00 319.00,304.00
             319.00,304.00 307.00,304.00 307.00,304.00
             307.00,304.00 307.00,338.00 307.00,338.00
             307.00,338.00 293.78,315.00 293.78,315.00
             293.78,315.00 286.79,305.02 286.79,305.02
             286.79,305.02 275.00,304.00 275.00,304.00 Z
           M 327.00,304.00
           C 327.00,304.00 327.00,358.00 327.00,358.00
             327.00,358.00 356.00,358.00 356.00,358.00
             356.00,358.00 356.00,347.00 356.00,347.00
             356.00,347.00 338.00,347.00 338.00,347.00
             338.00,347.00 338.00,337.00 338.00,337.00
             338.00,337.00 355.00,337.00 355.00,337.00
             355.00,337.00 355.00,326.00 355.00,326.00
             355.00,326.00 338.00,326.00 338.00,326.00
             338.00,326.00 338.00,315.00 338.00,315.00
             338.00,315.00 356.00,315.00 356.00,315.00
             356.00,315.00 356.00,304.00 356.00,304.00
             356.00,304.00 327.00,304.00 327.00,304.00 Z" />
  <path id="fd"
        fill="none" stroke="black" stroke-width="1"
        d="M 194.00,306.00
           C 194.00,306.00 194.00,356.00 194.00,356.00
             194.00,356.00 202.00,356.00 202.00,356.00
             202.00,351.63 200.75,337.40 204.31,335.02
             206.58,333.51 214.97,334.00 218.00,334.00
             218.00,334.00 218.00,326.00 218.00,326.00
             218.00,326.00 202.00,326.00 202.00,326.00
             202.00,326.00 202.00,314.00 202.00,314.00
             202.00,314.00 218.00,314.00 218.00,314.00
             218.00,314.00 218.00,306.00 218.00,306.00
             218.00,306.00 194.00,306.00 194.00,306.00 Z
           M 228.00,306.00
           C 228.00,306.00 228.00,356.00 228.00,356.00
             237.32,356.00 248.80,357.12 257.00,352.01
             270.14,343.82 272.36,320.03 258.96,310.97
             249.61,304.64 238.68,306.00 228.00,306.00 Z
           M 236.00,314.00
           C 240.33,314.00 244.85,313.66 249.00,315.11
             262.67,319.87 261.94,338.12 253.90,344.35
             250.74,346.80 240.03,350.20 237.02,346.40
             235.77,344.81 236.00,340.99 236.00,339.00
             236.00,339.00 236.00,314.00 236.00,314.00 Z" />
  <path id="body"
        fill="none" stroke="black" stroke-width="1"
        d="M 78.00,85.00
           C 78.00,89.19 77.65,93.25 80.01,96.96
             84.51,104.06 96.01,104.73 101.79,98.86
             107.08,93.48 106.00,86.87 106.00,80.00
             117.58,80.00 122.35,79.59 134.00,82.33
             164.80,89.58 192.87,113.11 212.54,137.00
             221.95,148.44 230.43,160.47 238.32,173.00
             241.82,178.55 246.71,188.91 252.01,192.15
             255.51,194.28 268.50,194.99 273.00,195.00
             273.00,195.00 398.00,195.00 398.00,195.00
             402.66,195.01 407.73,195.07 411.91,197.44
             418.08,200.93 419.92,207.41 420.00,214.00
             420.00,214.00 420.00,245.00 420.00,245.00
             420.00,245.00 420.00,408.00 420.00,408.00
             419.97,424.69 411.11,425.64 398.00,431.28
             398.00,431.28 365.00,445.01 365.00,445.01
             365.00,445.01 302.00,471.42 302.00,471.42
             302.00,471.42 271.00,483.77 271.00,483.77
             266.16,484.36 252.26,478.60 247.00,476.68
             247.00,476.68 194.00,457.50 194.00,457.50
             194.00,457.50 145.00,440.05 145.00,440.05
             135.97,436.73 129.19,433.84 129.00,423.00
             129.00,423.00 129.00,385.00 129.00,385.00
             129.00,378.86 129.57,370.54 126.70,365.00
             122.74,357.35 110.47,355.14 104.21,361.23
             99.94,365.37 100.01,369.52 100.00,375.00
             100.00,375.00 100.00,426.00 100.00,426.00
             100.07,439.80 107.20,453.01 119.00,460.34
             126.24,464.84 145.07,470.85 154.00,474.05
             154.00,474.05 216.00,496.41 216.00,496.41
             227.61,500.61 254.10,511.87 265.00,512.00
             265.00,512.00 274.00,512.00 274.00,512.00
             282.14,511.90 289.62,508.30 297.00,505.15
             297.00,505.15 326.00,493.01 326.00,493.01
             326.00,493.01 390.00,466.42 390.00,466.42
             390.00,466.42 425.00,451.73 425.00,451.73
             439.53,444.34 447.97,431.23 448.00,415.00
             448.00,415.00 448.00,210.00 448.00,210.00
             447.96,181.81 428.11,166.04 401.00,166.00
             401.00,166.00 277.00,166.00 277.00,166.00
             265.61,165.98 267.48,163.48 258.66,150.00
             250.97,138.25 242.44,126.85 233.54,116.00
             218.32,97.46 196.36,78.15 175.00,67.11
             168.80,63.90 161.64,60.54 155.00,58.42
             155.00,58.42 139.09,53.15 139.09,53.15
             135.88,51.03 131.03,43.43 128.58,40.00
             128.58,40.00 110.14,14.00 110.14,14.00
             105.18,7.05 102.53,0.29 93.00,0.02
             81.74,-0.31 78.06,3.99 78.00,15.00
             78.00,15.00 78.00,46.00 78.00,46.00
             77.99,48.72 78.32,52.33 76.40,54.49
             74.46,56.68 67.99,58.15 65.00,59.22
             56.02,62.43 48.32,65.67 40.00,70.43
             34.34,73.66 28.91,76.94 24.01,81.29
             9.67,94.00 0.03,113.75 0.00,133.00
             0.00,133.00 0.00,304.00 0.00,304.00
             0.01,309.10 0.01,312.12 1.93,317.00
             11.47,341.32 31.59,343.00 54.00,343.00
             54.00,343.00 75.00,343.00 75.00,343.00
             86.25,342.86 97.26,340.03 105.91,332.55
             119.86,320.49 119.00,307.53 119.00,291.00
             119.00,291.00 119.00,258.00 119.00,258.00
             119.00,255.87 118.88,253.00 119.59,251.00
             119.59,251.00 131.77,233.00 131.77,233.00
             138.63,221.34 145.84,203.66 145.78,190.00
             146.02,187.61 146.14,182.08 145.78,180.00
             143.83,173.65 137.18,170.58 131.00,171.11
             115.23,172.46 119.31,189.48 112.99,205.00
             110.52,211.06 107.04,217.79 103.10,223.00
             95.54,232.99 90.17,234.05 90.00,248.00
             90.00,248.00 90.00,298.00 90.00,298.00
             90.00,300.11 90.09,303.01 89.49,305.00
             86.27,315.68 74.63,314.00 66.00,314.00
             66.00,314.00 46.00,314.00 46.00,314.00
             34.45,313.98 28.07,310.55 28.00,298.00
             28.00,298.00 28.00,245.00 28.00,245.00
             28.00,245.00 28.00,160.00 28.00,160.00
             28.00,142.48 25.67,127.32 36.22,112.00
             47.12,96.17 62.30,93.04 78.00,85.00 Z
           M 58.00,157.53
           C 47.73,160.33 45.22,168.09 40.75,177.00
             39.13,180.24 36.71,184.46 36.21,188.00
             35.04,196.40 40.61,203.47 49.00,204.44
             60.98,205.83 65.92,192.66 70.25,184.00
             71.97,180.56 74.58,175.86 74.64,172.00
             74.79,162.84 66.79,156.54 58.00,157.53 Z
           M 213.00,206.14
           C 213.00,206.14 174.00,207.00 174.00,207.00
             153.50,207.03 140.03,220.48 140.00,241.00
             140.00,241.00 140.00,315.00 140.00,315.00
             140.00,315.00 140.00,399.00 140.00,399.00
             140.01,403.50 139.95,405.55 141.16,410.00
             146.23,428.73 162.23,432.34 178.00,438.60
             178.00,438.60 235.00,461.00 235.00,461.00
             244.61,464.83 264.32,473.96 274.00,472.82
             281.38,471.94 303.45,462.25 312.00,459.05
             312.00,459.05 361.00,439.64 361.00,439.64
             368.15,436.84 382.19,432.17 388.00,428.26
             398.04,421.50 401.98,412.78 402.00,401.00
             402.00,401.00 402.00,239.00 402.00,239.00
             401.97,217.06 385.56,206.03 365.00,206.14
             365.00,206.14 266.00,206.14 266.00,206.14
             266.00,206.14 213.00,206.14 213.00,206.14 Z
           M 273.00,459.00
           C 273.00,459.00 273.00,220.00 273.00,220.00
             273.00,220.00 365.00,220.00 365.00,220.00
             382.01,220.03 388.80,228.55 389.00,245.00
             389.00,245.00 389.00,393.00 389.00,393.00
             388.99,401.19 388.45,409.54 381.70,415.21
             376.59,419.50 353.71,427.32 346.00,430.40
             346.00,430.40 301.00,448.20 301.00,448.20
             301.00,448.20 273.00,459.00 273.00,459.00 Z
           M 41.04,282.74
           C 32.01,288.00 36.18,300.19 45.96,298.76
             52.62,297.79 55.29,289.15 50.57,284.43
             47.80,281.66 44.51,281.92 41.04,282.74 Z
           M 204.00,315.00
           C 204.00,315.00 204.00,325.00 204.00,325.00
             204.00,325.00 219.00,325.00 219.00,325.00
             219.00,325.00 219.00,336.00 219.00,336.00
             219.00,336.00 204.00,336.00 204.00,336.00
             204.00,336.00 204.00,357.00 204.00,357.00
             204.00,357.00 193.00,357.00 193.00,357.00
             193.00,357.00 193.00,304.00 193.00,304.00
             193.00,304.00 211.00,304.00 211.00,304.00
             214.82,304.01 219.12,303.22 219.85,308.06
             221.27,317.54 210.17,315.00 204.00,315.00 Z
           M 226.00,357.00
           C 226.00,357.00 226.00,313.00 226.00,313.00
             226.00,311.01 225.77,307.19 227.02,305.60
             228.36,303.91 231.06,304.04 233.00,304.00
             237.22,303.93 247.06,304.86 251.00,305.93
             274.97,312.43 273.66,344.07 257.00,353.64
             251.58,356.75 247.03,356.99 241.00,357.00
             241.00,357.00 226.00,357.00 226.00,357.00 Z
           M 237.00,315.00
           C 237.00,315.00 237.00,338.00 237.00,338.00
             237.00,339.98 236.77,343.82 238.02,345.40
             240.75,348.84 250.10,345.51 252.89,343.35
             260.30,337.62 261.02,320.27 248.00,316.06
             244.17,314.82 240.94,315.00 237.00,315.00 Z" />
</svg>
